<svg xmlns="http://www.w3.org/2000/svg" width="512" height="512" viewBox="0 0 512 512" version="1.1"><path d="M 88.750 141.706 C 89.987 141.944, 92.013 141.944, 93.250 141.706 C 94.487 141.467, 93.475 141.272, 91 141.272 C 88.525 141.272, 87.513 141.467, 88.750 141.706 M 437.500 142.556 C 428.170 147.358, 422.846 165.105, 427.875 174.640 C 430.369 179.367, 430.500 178.824, 428.372 172.580 C 426.412 166.825, 426.968 160.271, 430.018 153.180 C 432.824 146.658, 436.631 143.156, 442.079 142.087 C 445.669 141.382, 445.936 141.200, 443.500 141.116 C 441.850 141.059, 439.150 141.707, 437.500 142.556 M 77.750 144.068 C 75.688 145.157, 74 146.274, 74 146.550 C 74 146.826, 75.463 146.290, 77.250 145.358 C 79.037 144.427, 81.850 143.337, 83.500 142.935 C 86.212 142.275, 86.260 142.199, 84 142.147 C 82.625 142.115, 79.813 142.979, 77.750 144.068 M 99.497 144.250 C 102.759 147.064, 104.272 153.188, 102.940 158.187 C 102.237 160.823, 99.898 163.783, 94.729 168.578 C 90.650 172.360, 89.679 173.516, 92.500 171.230 C 101.954 163.567, 104.237 160.585, 104.753 155.222 C 105.273 149.805, 103.340 144.788, 100.055 143.030 C 96.930 141.357, 96.707 141.844, 99.497 144.250 M 449.531 143.399 C 457.001 146.653, 467.759 163.929, 476.532 186.756 C 478.066 190.747, 479.492 193.841, 479.702 193.631 C 481.034 192.299, 465.387 158.595, 459.753 150.661 C 457.273 147.168, 450.269 141.986, 448.100 142.039 C 447.220 142.061, 447.864 142.673, 449.531 143.399 M 66.349 151.406 C 55.033 159.930, 36.724 176.333, 33.629 180.720 C 28.107 188.547, 24.851 195.253, 21.385 205.934 C 19.523 211.673, 18.013 217.073, 18.030 217.934 C 18.046 218.795, 19.772 214.325, 21.866 208 C 29.692 184.358, 34.853 177.716, 62.500 155.711 C 74.169 146.422, 73.488 147, 72.766 147 C 72.454 147, 69.566 148.983, 66.349 151.406 M 141 159.987 C 139.970 160.644, 140.669 160.755, 143.233 160.343 C 145.318 160.009, 148.247 160.274, 149.866 160.945 C 152.745 162.137, 158.142 168.686, 159.937 173.164 C 160.452 174.449, 160.902 174.920, 160.937 174.210 C 161.058 171.738, 157.092 165.288, 153.524 162.155 C 149.792 158.879, 144.245 157.918, 141 159.987 M 135.327 163.380 C 133.772 164.689, 131.467 167.726, 130.204 170.130 C 128.864 172.682, 128.656 173.460, 129.704 172 C 130.692 170.625, 133.245 167.588, 135.377 165.250 C 139.676 160.538, 139.654 159.736, 135.327 163.380 M 326.625 174.446 C 316.027 178.287, 307.528 194.147, 311.269 203.100 C 312.072 205.023, 315.596 210.625, 319.100 215.548 C 322.604 220.472, 326.929 227.200, 328.712 230.500 C 330.496 233.800, 331.965 236.145, 331.977 235.710 C 332.025 234.038, 327.590 226.419, 320.515 216.022 C 316.463 210.068, 312.695 203.555, 312.142 201.551 C 310.382 195.179, 315.240 183.103, 321.564 178.128 C 333.858 168.458, 352.553 179.090, 364.747 202.687 C 366.789 206.639, 368.622 209.711, 368.820 209.513 C 369.979 208.354, 359.717 191.678, 354.332 185.970 C 344.439 175.482, 334.812 171.479, 326.625 174.446 M 82.453 179.250 L 78.500 183.500 82.750 179.547 C 86.702 175.871, 87.460 175, 86.703 175 C 86.540 175, 84.627 176.912, 82.453 179.250 M 125.452 178.093 C 124.572 179.794, 124.030 181.363, 124.247 181.580 C 124.464 181.797, 125.390 180.406, 126.305 178.487 C 128.361 174.175, 127.649 173.845, 125.452 178.093 M 430.644 180.996 C 431 182.369, 432.126 185.294, 433.147 187.496 C 434.168 189.698, 434.712 190.377, 434.356 189.004 C 434 187.631, 432.874 184.706, 431.853 182.504 C 430.832 180.302, 430.288 179.623, 430.644 180.996 M 119.209 192.682 C 117.565 196.982, 115.943 202.075, 115.604 204 C 115.264 205.925, 116.752 202.550, 118.909 196.500 C 123.431 183.821, 123.646 181.075, 119.209 192.682 M 71.453 190.250 L 67.500 194.500 71.750 190.547 C 75.702 186.871, 76.460 186, 75.703 186 C 75.540 186, 73.627 187.912, 71.453 190.250 M 158 189.211 C 158 189.511, 157.319 191.386, 156.487 193.378 C 155.654 195.370, 155.198 197, 155.473 197 C 156.265 197, 159.083 189.750, 158.513 189.180 C 158.231 188.898, 158 188.912, 158 189.211 M 435 192.298 C 435 193.669, 443.291 215.042, 443.674 214.659 C 443.899 214.434, 442.256 209.385, 440.023 203.440 C 436.291 193.502, 435 190.640, 435 192.298 M 216.172 198.750 C 204.983 205.528, 190.900 219.922, 191.030 224.446 C 191.047 225.026, 191.558 224.600, 192.167 223.500 C 196.727 215.251, 208.218 204.188, 218.081 198.550 C 227.986 192.888, 242.289 197.153, 254.573 209.430 C 259.368 214.223, 261.824 217.920, 266.245 227 C 269.324 233.325, 272.993 241.875, 274.396 246 C 275.800 250.125, 276.960 252.656, 276.974 251.624 C 277.008 249.164, 270.787 233.606, 265.730 223.500 C 260.845 213.739, 250.509 203.017, 241.360 198.220 C 236.296 195.564, 234.094 195, 228.791 195 C 223.130 195, 221.624 195.447, 216.172 198.750 M 486.292 214 C 487.715 220.196, 489.228 230.151, 490.451 241.351 C 491.181 248.033, 491.824 251.475, 491.881 249 C 492.082 240.234, 488.177 213.765, 486.448 212.172 C 486.047 211.802, 485.977 212.625, 486.292 214 M 55.630 221.250 C 54.857 224.134, 55.025 264.545, 55.862 277 C 56.221 282.347, 56.500 271.748, 56.500 252.752 C 56.500 234.190, 56.440 219.002, 56.367 219.002 C 56.293 219.001, 55.962 220.012, 55.630 221.250 M 16.500 224 C 16.116 226.274, 16.011 228.345, 16.268 228.601 C 16.524 228.857, 17.034 227.192, 17.400 224.900 C 17.766 222.608, 17.871 220.538, 17.632 220.299 C 17.394 220.060, 16.884 221.726, 16.500 224 M 147.336 230 C 147.336 234.125, 147.513 235.813, 147.728 233.750 C 147.944 231.688, 147.944 228.313, 147.728 226.250 C 147.513 224.188, 147.336 225.875, 147.336 230 M 374.030 225.169 C 374.014 225.537, 374.784 228.687, 375.741 232.169 C 378.315 241.526, 378.024 270.840, 375.178 289 C 374.014 296.425, 372.823 304.300, 372.531 306.500 C 371.528 314.046, 373.842 305.326, 375.449 295.500 C 379.284 272.060, 380.070 249.890, 377.564 235.837 C 376.438 229.528, 374.147 222.609, 374.030 225.169 M 189.116 229.098 C 188.502 230.858, 188.032 232.794, 188.070 233.399 C 188.109 234.005, 188.786 232.739, 189.574 230.587 C 190.363 228.435, 190.833 226.500, 190.620 226.286 C 190.406 226.073, 189.729 227.338, 189.116 229.098 M 447.199 228.500 C 447.199 229.600, 447.560 231.625, 448 233 C 448.634 234.980, 448.801 235.084, 448.801 233.500 C 448.801 232.400, 448.440 230.375, 448 229 C 447.366 227.020, 447.199 226.916, 447.199 228.500 M 110.413 245.500 C 110.414 255.400, 110.564 259.315, 110.746 254.199 C 110.928 249.084, 110.927 240.984, 110.744 236.199 C 110.561 231.415, 110.412 235.600, 110.413 245.500 M 15.232 233 C 15.232 234.925, 15.438 235.713, 15.689 234.750 C 15.941 233.787, 15.941 232.213, 15.689 231.250 C 15.438 230.287, 15.232 231.075, 15.232 233 M 186.999 235.083 C 186.998 235.313, 186.321 239.325, 185.494 244 C 184.668 248.675, 183.705 256.821, 183.355 262.103 C 182.763 271.036, 182.899 272.100, 185.309 277.363 C 186.733 280.474, 189.909 285.633, 192.366 288.826 C 197.798 295.885, 213.657 310.539, 217.408 311.965 C 223.299 314.205, 239.136 312.428, 247.583 308.579 C 252.779 306.212, 253.680 305.278, 265.971 289.524 C 275.118 277.801, 279.604 266.414, 278.166 258.567 L 277.238 253.500 277.119 260.193 C 276.950 269.718, 273.269 278.989, 266.188 287.725 C 263.060 291.585, 259.046 296.828, 257.268 299.375 C 255.490 301.923, 252.582 304.892, 250.806 305.972 C 243.168 310.617, 221.467 312.968, 215.500 309.798 C 210.562 307.174, 194.504 290.954, 190.206 284.249 C 183.428 273.675, 183.073 269.863, 186.605 245.606 C 187.397 240.164, 187.810 235.477, 187.523 235.189 C 187.235 234.902, 186.999 234.854, 186.999 235.083 M 449.213 239.500 C 449.192 241.150, 449.526 244.750, 449.954 247.500 C 450.591 251.589, 450.744 251.862, 450.792 249 C 450.825 247.075, 450.491 243.475, 450.051 241 C 449.469 237.728, 449.240 237.319, 449.213 239.500 M 16.398 251.547 C 16.345 259.230, 16.375 259.336, 17.294 254.672 C 17.866 251.766, 17.888 248.601, 17.348 246.719 C 16.626 244.201, 16.441 245.140, 16.398 251.547 M 334.365 261.500 C 334.368 267, 334.536 269.122, 334.738 266.216 C 334.941 263.311, 334.939 258.811, 334.734 256.216 C 334.528 253.622, 334.363 256, 334.365 261.500 M 147.300 258 C 147.300 261.025, 147.487 262.262, 147.716 260.750 C 147.945 259.238, 147.945 256.762, 147.716 255.250 C 147.487 253.738, 147.300 254.975, 147.300 258 M 451.746 290.500 L 452.173 326.500 456.915 333.500 C 461.854 340.791, 464.767 342.414, 468.724 340.081 C 470.117 339.260, 469.800 339.165, 467.252 339.642 C 463.233 340.393, 461.827 339.309, 456.827 331.595 L 453 325.690 452.886 303.095 C 452.823 290.668, 452.445 274.650, 452.046 267.500 C 451.625 259.968, 451.499 269.643, 451.746 290.500 M 492.310 262.500 C 492.315 265.800, 492.502 267.029, 492.725 265.232 C 492.947 263.435, 492.943 260.735, 492.715 259.232 C 492.486 257.729, 492.304 259.200, 492.310 262.500 M 15.252 263.500 C 15.263 265.700, 15.468 266.482, 15.707 265.238 C 15.946 263.994, 15.937 262.194, 15.687 261.238 C 15.437 260.282, 15.241 261.300, 15.252 263.500 M 111.252 270.500 C 111.263 272.700, 111.468 273.482, 111.707 272.238 C 111.946 270.994, 111.937 269.194, 111.687 268.238 C 111.437 267.282, 111.241 268.300, 111.252 270.500 M 493.431 293.500 C 493.432 306.700, 493.574 311.962, 493.747 305.193 C 493.921 298.424, 493.920 287.624, 493.746 281.193 C 493.572 274.762, 493.431 280.300, 493.431 293.500 M 15.320 280 C 15.320 283.575, 15.502 285.038, 15.723 283.250 C 15.945 281.462, 15.945 278.538, 15.723 276.750 C 15.502 274.962, 15.320 276.425, 15.320 280 M 149.460 278 C 150.597 283.734, 153.252 293.081, 153.635 292.699 C 154.064 292.269, 149.977 275.711, 149.267 275 C 148.991 274.725, 149.079 276.075, 149.460 278 M 333.272 282 C 333.272 284.475, 333.467 285.488, 333.706 284.250 C 333.944 283.012, 333.944 280.988, 333.706 279.750 C 333.467 278.512, 333.272 279.525, 333.272 282 M 16.058 290.083 C 16.089 291.962, 16.511 295.300, 16.996 297.500 C 17.672 300.574, 17.746 299.880, 17.315 294.500 C 16.718 287.050, 15.962 284.394, 16.058 290.083 M 57.118 291.083 C 57.183 292.962, 57.603 295.850, 58.051 297.500 C 58.587 299.473, 58.674 298.445, 58.308 294.500 C 57.693 287.887, 56.932 285.702, 57.118 291.083 M 115.075 295.141 C 114.972 297.390, 119.575 314.898, 121.601 319.961 C 123.781 325.410, 124.465 324.545, 122.435 318.906 C 121.562 316.483, 119.567 309.775, 118 304 C 116.433 298.225, 115.117 294.238, 115.075 295.141 M 330.104 297.649 C 328.117 305.101, 326.794 316.425, 327.211 322.430 C 327.575 327.677, 328.291 329.483, 332.492 335.750 C 337.292 342.909, 337.408 343, 341.738 343 C 347.691 343, 355.853 338.968, 360.830 333.568 C 364.737 329.330, 370 320.322, 370 317.874 C 370 317.217, 368.559 319.565, 366.797 323.090 C 362.388 331.915, 355.685 338.422, 348.941 340.425 C 339.565 343.209, 338.737 342.911, 333.313 334.809 L 328.500 327.617 328.685 318.559 C 328.787 313.576, 329.582 306.170, 330.453 302.101 C 332.117 294.318, 331.862 291.058, 330.104 297.649 M 18.100 305.583 C 18.155 307.188, 18.582 309.625, 19.049 311 C 19.622 312.686, 19.711 311.872, 19.321 308.500 C 18.672 302.875, 17.948 301.147, 18.100 305.583 M 20.494 317 C 21.072 320.839, 28.127 335.189, 36.718 350 C 46.862 367.487, 50.104 371.976, 54.404 374.497 C 59.036 377.211, 71.525 379.520, 76.350 378.555 C 79.183 377.987, 91.417 368, 89.278 368 C 88.804 368, 86.410 370.068, 83.958 372.597 L 79.500 377.193 70.327 376.740 C 59.165 376.188, 52.933 373.528, 48.682 367.500 C 40.630 356.082, 25.745 328.907, 21.843 318.500 C 20.249 314.249, 20.047 314.024, 20.494 317 M 169.096 323.160 C 171.793 327.647, 174 332.294, 174 333.485 C 174 334.677, 172.825 336.742, 171.389 338.076 C 168.797 340.482, 160.513 352, 161.375 352 C 161.622 352, 163.836 349.188, 166.294 345.750 C 168.752 342.313, 171.716 338.643, 172.881 337.595 C 176.178 334.631, 175.483 330.997, 170.020 322.628 C 167.281 318.433, 164.849 315, 164.616 315 C 164.383 315, 166.399 318.672, 169.096 323.160 M 489.323 321.258 C 487.576 323.041, 483.526 327.200, 480.323 330.500 C 477.120 333.800, 473.600 337.069, 472.500 337.764 C 471.400 338.460, 471.850 338.379, 473.500 337.586 C 477.053 335.877, 480.605 332.547, 487.809 324.172 C 493.642 317.390, 494.240 316.239, 489.323 321.258 M 74.524 332.566 C 75.453 334.252, 77.103 336.727, 78.190 338.066 L 80.167 340.500 78.476 337.434 C 77.547 335.748, 75.897 333.273, 74.810 331.934 L 72.833 329.500 74.524 332.566 M 129.107 335.901 C 133.801 344.535, 149.342 359, 153.923 359 C 154.860 359, 156.948 357.563, 158.563 355.806 L 161.500 352.612 158.173 355.306 C 154.123 358.586, 153.893 358.594, 149.230 355.624 C 142.881 351.578, 136.491 345.367, 132.445 339.306 C 127.363 331.695, 126.143 330.451, 129.107 335.901 M 86.530 351.123 C 90.089 356.736, 93 361.902, 93 362.605 C 93 363.307, 93.432 364.149, 93.960 364.475 C 96.045 365.764, 92.404 358.088, 87.199 350.223 C 79.351 338.363, 78.859 339.024, 86.530 351.123" stroke="none" fill="#b2cdcf" fill-rule="evenodd"/><path d="M 83.500 142.938 C 78.211 144.232, 72.383 147.776, 62.322 155.819 C 50.207 165.503, 39.572 175.131, 35.162 180.407 C 27.907 189.085, 19.689 210.598, 16.585 229.035 C 15.108 237.813, 15.109 239.005, 16.604 244.035 C 18.027 248.821, 18.064 250.370, 16.906 256.500 C 14.615 268.618, 16.403 296.618, 20.545 313.500 C 22.967 323.369, 38.262 352.723, 48.682 367.500 C 52.933 373.528, 59.165 376.188, 70.327 376.740 L 79.500 377.193 83.958 372.597 C 86.410 370.068, 88.912 368, 89.517 368 C 90.122 368, 91.421 367.412, 92.403 366.694 C 94.042 365.496, 94.067 365.096, 92.708 361.843 C 91.893 359.893, 86.182 350.526, 80.018 341.027 C 66.795 320.654, 60.628 308.842, 58.579 299.966 C 56.472 290.840, 55.021 268.018, 55.010 243.804 L 55 223.108 58.874 212.109 C 61.088 205.826, 64.266 199.051, 66.288 196.305 C 70.008 191.255, 82.607 178.817, 94.746 168.212 C 102.846 161.135, 104.584 157.413, 103.013 150.500 C 101.678 144.620, 98.113 141.976, 91.694 142.102 C 88.837 142.159, 85.150 142.535, 83.500 142.938 M 438.500 142.954 C 432.608 145.391, 427.594 155.504, 427.569 165 C 427.554 170.772, 428.466 173.855, 435.709 192.522 C 444.803 215.957, 447.362 224.301, 449.517 237.547 C 451.440 249.366, 452.980 279.288, 452.991 305.054 L 453 325.608 456.104 330.554 C 460.325 337.279, 462.978 340, 465.315 340 C 469.093 340, 476.125 335.559, 481.068 330.051 C 483.808 326.998, 487.676 322.877, 489.664 320.893 L 493.278 317.286 492.711 286.893 C 491.814 238.867, 489.029 219.355, 479.523 194.500 C 463.473 152.537, 451.550 137.556, 438.500 142.954 M 140.418 160.969 C 134.063 163.540, 125.480 177.783, 119.075 196.388 C 111.775 217.588, 110.732 224.990, 111.305 251.500 C 111.929 280.352, 114.945 297.775, 123.419 321.485 C 128.878 336.759, 139.002 349.822, 150.453 356.366 C 153.670 358.204, 154.014 358.221, 156.407 356.653 C 157.804 355.738, 161.157 351.729, 163.858 347.744 C 166.560 343.760, 169.947 339.409, 171.385 338.076 C 172.823 336.742, 174 334.677, 174 333.485 C 174 332.294, 171.679 327.535, 168.841 322.910 C 151.350 294.395, 148.196 283.490, 147.326 248.500 C 146.641 220.953, 147.627 214.376, 155.053 196.921 C 161.975 180.648, 162.255 175.800, 156.734 167.778 C 151.745 160.531, 146.703 158.426, 140.418 160.969 M 326.684 175.416 C 320.015 177.852, 315.389 183.582, 312.652 192.800 C 310.556 199.859, 311.616 202.945, 320.740 216.348 C 331.252 231.788, 332.807 235.548, 334.156 248.796 C 335.546 262.456, 334.076 286.045, 330.964 300 C 329.799 305.225, 328.768 313.576, 328.673 318.559 L 328.500 327.617 333.313 334.809 C 337.357 340.849, 338.571 342, 340.905 342 C 345.380 342, 352.811 339.382, 356.653 336.451 C 361.346 332.871, 367.383 323.402, 369.887 315.690 C 373.698 303.952, 377.997 271.698, 377.999 254.822 C 378.002 233.350, 370.482 209.383, 358.395 192.339 C 348.745 178.731, 336.094 171.980, 326.684 175.416 M 218.081 198.550 C 210.819 202.701, 201.085 211.124, 196.488 217.233 C 191.318 224.104, 188.537 232.056, 186.603 245.500 C 183.082 269.974, 183.425 273.671, 190.206 284.249 C 194.504 290.954, 210.562 307.174, 215.500 309.798 C 221.467 312.968, 243.168 310.617, 250.806 305.972 C 252.582 304.892, 255.490 301.923, 257.268 299.375 C 259.046 296.828, 263.060 291.585, 266.188 287.725 C 273.336 278.906, 277 269.637, 277 260.369 C 277 252.307, 273.927 242.770, 266.246 227 C 261.825 217.921, 259.367 214.222, 254.573 209.430 C 242.289 197.153, 227.986 192.888, 218.081 198.550" stroke="none" fill="#2d8c94" fill-rule="evenodd"/></svg>